<svg xmlns="http://www.w3.org/2000/svg" xmlns:xlink="http://www.w3.org/1999/xlink" width="24" height="24" viewBox="0 0 24 24">
    <defs>
        <path id="xutn5u4qqa" d="M20.7 7.5L10.1 18.2c-.3.3-.6.5-.9.5-.3 0-.8-.2-.9-.5l-4.8-4.8c-.3-.3-.5-.6-.5-.9 0-.3.2-.8.5-.9.3-.3.6-.5.9-.5.3 0 .8.2.9.5l3.8 3.8 9.5-9.5c.3-.3.6-.5.9-.5.3 0 .8.2.9.5.4.3.6.6.6.9 0 .3 0 .4-.3.7z"/>
    </defs>
    <g fill="none" fill-rule="evenodd">
        <g>
            <g>
                <g>
                    <g transform="translate(-1321 -192) translate(1178) translate(143 188) translate(0 4)">
                        <mask id="y4i5czewbb" fill="#fff">
                            <use xlink:href="#xutn5u4qqa"/>
                        </mask>
                        <g fill="#41C375" mask="url(#y4i5czewbb)">
                            <path d="M0 0H24V24H0z"/>
                        </g>
                    </g>
                </g>
            </g>
        </g>
    </g>
</svg>
