<svg xmlns="http://www.w3.org/2000/svg" xmlns:xlink="http://www.w3.org/1999/xlink" id="Layer_1" x="0px" y="0px" viewBox="0 0 72 72" style="enable-background:new 0 0 72 72;" xml:space="preserve">
<style type="text/css">
	.st0{fill:#4EBA74;}
</style>
<g>
	<g>
		<path class="st0" d="M37,25.2c-6.8,0.2-12.8,5-12.7,12.2c0.1,7.5,6.2,13.7,13.8,13.3c6.9-0.3,12.1-6.2,12-13    C49.9,30.5,43.9,25.2,37,25.2c-0.8,0-0.8,1.2,0,1.2c14.1,0.1,16,21.7,1.7,22.9c-6.6,0.6-12.3-4.1-13-10.7    c-0.7-6.9,4.6-12,11.3-12.2C37.8,26.4,37.8,25.2,37,25.2L37,25.2z"></path>
	</g>
</g>
<g>
	<g>
		<path class="st0" d="M53.9,64.7c-11.2,0-22.5,0.4-33.7,0C15.2,64.6,10.6,62,8.9,57c-0.8-2.4-0.6-5.1-0.6-7.6c0-6.9,0-13.9,0-20.8    C8.3,21.8,7,13.4,14,9.3c4.8-2.8,12.7-1.6,18-1.6c6.8,0,13.5-0.1,20.3,0c8.1,0.1,12.9,5,13.1,13.1c0.1,7.7,0,15.4,0,23.1    C65.3,52.7,66.1,64.1,53.9,64.7c-0.8,0-0.8,1.3,0,1.2c8.3-0.5,12.6-6.8,12.6-14.6c0-8.2,0-16.4,0-24.6c0-6.5,0.8-13.5-5.2-17.9    c-5.1-3.7-12.9-2.5-18.8-2.5c-7.5,0-15-0.3-22.5,0C12.5,6.8,7.2,12.1,7.1,19.7c-0.2,7.6,0,15.2,0,22.8c0,5.9-1.2,13.3,2.5,18.4    c4.9,6.6,13.8,5.1,21,5.1c7.8,0,15.6,0,23.4,0C54.7,66,54.7,64.7,53.9,64.7z"></path>
	</g>
</g>
<g>
	<g>
		<path class="st0" d="M51.6,22.3c2.4,0,2.4-3.8,0-3.8C49.2,18.6,49.2,22.3,51.6,22.3L51.6,22.3z"></path>
	</g>
</g>
</svg>