<svg xmlns="http://www.w3.org/2000/svg" xmlns:xlink="http://www.w3.org/1999/xlink" id="Layer_1" x="0px" y="0px" viewBox="0 0 72 72" style="enable-background:new 0 0 72 72;" xml:space="preserve">
<style type="text/css">
	.st0{fill:#4EBA74;}
</style>
<g>
	<g>
		<path class="st0" d="M53.3,64.7c-11.2,0-22.5,0.4-33.7,0C14.6,64.6,10,62,8.3,57c-0.8-2.4-0.6-5.1-0.6-7.6c0-6.9,0-13.9,0-20.8    c0-6.8-1.3-15.2,5.6-19.3c4.8-2.8,12.7-1.6,18-1.6c6.8,0,13.5-0.1,20.3,0c8.1,0.1,12.9,5,13.1,13.1c0.1,7.7,0,15.4,0,23.1    C64.7,52.7,65.5,64.1,53.3,64.7c-0.8,0-0.8,1.3,0,1.2c8.3-0.5,12.6-6.8,12.6-14.6c0-8.2,0-16.4,0-24.6c0-6.5,0.8-13.5-5.2-17.9    C55.7,5.2,47.9,6.5,42,6.5c-7.5,0-15-0.3-22.5,0C12,6.8,6.7,12.1,6.5,19.7c-0.2,7.6,0,15.2,0,22.8c0,5.9-1.2,13.3,2.5,18.4    c4.9,6.6,13.8,5.1,21,5.1c7.8,0,15.6,0,23.4,0C54.1,66,54.2,64.7,53.3,64.7z"></path>
	</g>
</g>
<g>
	<g>
		<path class="st0" d="M38,40c5.2-0.1,10.5-0.2,15.7-0.3c0.8,0,0.8-1.3,0-1.2c-5.2,0.1-10.5,0.2-15.7,0.3C37.2,38.7,37.2,40,38,40    L38,40z"></path>
	</g>
</g>
<g>
	<g>
		<path class="st0" d="M46.4,64.1c-0.3-8.4-1-16.8-1-25.2c0-4-0.1-8.2,0.7-12.1c0.2-1,0.5-2.1,0.9-3.1c1.8-4.8,6.3-1.7,7,2.6    c0.1,0.8,1.3,0.5,1.2-0.3c-0.5-3.3-1.8-5.9-5.5-6.1c-2.9-0.1-3.4,2.1-4.2,4.6c-1.6,5.1-1.3,11-1.3,16.3c0.1,7.8,0.7,15.5,1,23.3    C45.2,64.9,46.5,64.9,46.4,64.1L46.4,64.1z"></path>
	</g>
</g>
</svg>