<svg xmlns="http://www.w3.org/2000/svg" xmlns:xlink="http://www.w3.org/1999/xlink" id="Layer_1" x="0px" y="0px" viewBox="0 0 72 72" style="enable-background:new 0 0 72 72;" xml:space="preserve">
  <style type="text/css">
    .st0{fill:#4EBA74;}
  </style>
  <g>
    <g>
      <path class="st0" d="M38.9,59.2c-3.9,0-8.4,0.5-12.2-0.4c-5.2-1.2-4.4-6.6-4.4-10.8c0-8,0.1-16.1,0-24.1c0-1.9-0.3-4,0.1-5.9    c0.9-3.6,4.3-3.3,7.4-3.3c4,0,8-0.2,12,0.1c3.8,0.3,5.7,1.4,5.9,5.3c0.1,1.4,0,2.9,0,4.3c0,3.8,0,7.7,0,11.5c0,4.5,0,9,0,13.5    c0,1.8,0.1,3.6-0.1,5.3C47,59.7,42.9,59.4,38.9,59.2c-0.8,0-0.8,1.2,0,1.2c4.5,0.3,8.9,0.5,9.8-4.7c0.7-4.3,0.2-9.1,0.2-13.5    c0-5.7,0-11.4,0-17.2c0-3.1,1-7.7-1.6-10c-3.3-2.9-10.6-1.6-14.7-1.6c-3.4,0-9.1-1-11,2.7C20,19.4,21,24.6,21,28.3    c0,6,0,12.1,0,18.1c0,3.8-1,9.6,2.2,12.3c3.6,3.1,11.3,1.7,15.7,1.7C39.7,60.4,39.7,59.2,38.9,59.2z"></path>
    </g>
  </g>
  <g>
    <g>
      <path class="st0" d="M38,50.5c-2.9-0.1-10.2,0.7-12-1.8c-1.3-1.8-0.5-7.4-0.5-9.5c0-3.8,0-7.7,0-11.5c0-1.2-0.2-2.8-0.1-3.9    c0.6-3.7,3.5-3.4,6.7-3.5c3.4-0.1,11.6-1.1,12.5,2.7c0.5,2-0.1,5.5-0.1,7.6c0,3.9,0,7.9,0,11.8c0,1.1,0,2.2,0,3.3    C44.3,50.2,42,50.5,38,50.5c-0.8,0-0.8,1.2,0,1.2c3,0,6.5,0.2,7.5-3.1c0.9-2.7,0.3-6.6,0.3-9.4c0-4.2-0.1-8.4,0-12.7    c0-2.1,0.8-4.9-1.1-6.4c-2.7-2.1-8.3-1.2-11.5-1.1c-2.5,0-6.8-0.6-8.4,1.8c-1.4,2.1-0.5,6.1-0.5,8.5c0,4.5,0,9.1,0,13.6    c0,2.6-0.5,6,2,7.5c2.9,1.8,8.4,1,11.8,1.1C38.8,51.8,38.8,50.6,38,50.5z"></path>
    </g>
  </g>
  <g>
    <g>
      <path class="st0" d="M53.9,36.4c3,0,6,0,9-0.1c0.8,0,0.8-1.3,0-1.2c-3,0-6,0-9,0.1C53.1,35.1,53.1,36.4,53.9,36.4L53.9,36.4z"></path>
    </g>
  </g>
  <g>
    <g>
      <path class="st0" d="M53.3,33.4c3.2-2,6.4-3.9,9.7-5.7c0.7-0.4,0.1-1.5-0.6-1.1c-3.3,1.8-6.5,3.7-9.7,5.7    C51.9,32.7,52.6,33.8,53.3,33.4L53.3,33.4z"></path>
    </g>
  </g>
  <g>
    <g>
      <path class="st0" d="M62,43.6c-2.6-1.5-5.2-3-7.8-4.5c-0.7-0.4-1.3,0.7-0.6,1.1c2.6,1.5,5.2,3,7.8,4.5C62.1,45.1,62.7,44,62,43.6    L62,43.6z"></path>
    </g>
  </g>
  <g>
    <g>
      <path class="st0" d="M35.9,2.2C22,2.2,8.6,10.2,3.8,23.6c-5.3,14.5,1.3,32.6,14,41.1c11.6,7.7,28.1,7.7,39.3-0.7    c10.5-7.9,15.9-22.2,13-35C66.7,13.2,51.9,1.7,35.9,2.2c-0.8,0-0.8,1.3,0,1.2c17.4-0.6,33,13.6,33.7,31.1    c0.7,16.9-11.5,32.4-28.5,34.3c-19.4,2.2-36-12.3-37.7-31.6c-1.7-19,14-33.9,32.5-33.9C36.7,3.5,36.7,2.2,35.9,2.2L35.9,2.2z"></path>
    </g>
  </g>
  <g>
    <g>
      <path class="st0" d="M29.8,17.3c3.4,0,6.9,0.1,10.3,0.1c0.8,0,0.8-1.2,0-1.2c-3.4,0-6.9-0.1-10.3-0.1C29,16.1,29,17.3,29.8,17.3    L29.8,17.3z"></path>
    </g>
  </g>
  <g>
    <g>
      <path class="st0" d="M37.3,55.1c-0.7-2.1-4.4-1.1-3.7,1.1c0.3,1,1.5,1.6,2.5,1.2C37,57.1,37.7,56,37.3,55.1    c-0.3-0.7-1.5-0.4-1.2,0.3c0.3,0.8-0.9,1.2-1.3,0.4c-0.3-0.6,1.1-1,1.3-0.4C36.4,56.2,37.6,55.9,37.3,55.1L37.3,55.1z"></path>
    </g>
  </g>
</svg>