<svg xmlns="http://www.w3.org/2000/svg" xmlns:xlink="http://www.w3.org/1999/xlink" id="Layer_1" x="0px" y="0px" viewBox="0 0 72 72" style="enable-background:new 0 0 72 72;" xml:space="preserve">
  <style type="text/css">
    .st0{fill:#4EBA74;}
  </style>
  <g>
    <g>
      <path class="st0" d="M34.8,1.2C20.8,1.2,7.5,9.2,2.7,22.6c-5.3,14.5,1.3,32.6,14,41.1C28.3,71.4,44.8,71.4,56,63    c10.5-7.9,15.9-22.2,13-35C65.6,12.2,50.8,0.7,34.8,1.2c-0.8,0-0.8,1.3,0,1.3c17.4-0.6,33,13.6,33.7,31.1    C69.2,50.4,57,65.9,40,67.9C20.6,70.1,4,55.6,2.3,36.3c-1.7-19,14-33.9,32.5-33.9C35.6,2.5,35.6,1.2,34.8,1.2L34.8,1.2z"></path>
    </g>
  </g>
  <g>
    <g>
      <path class="st0" d="M25.9,20.4c3.3-6.2,10.2-9.9,17.1-6.9c8.3,3.7,8.1,13.8,0.5,18.3c-2.1,1.2-6,1-7.4,3.1    c-0.9,1.3-0.2,4.9-0.2,6.4c0,2.9,0,5.8,0,8.8c0,0.8,1.3,0.8,1.2,0c0-3.4-1.6-12.8,1.3-15.2c0.8-0.6,3.2-0.9,4.2-1.3    c1-0.5,1.8-1,2.7-1.6c4.2-3.1,6.5-8.7,4.4-13.7c-4.7-11.6-20.3-7.3-25.1,1.6C24.5,20.4,25.6,21.1,25.9,20.4L25.9,20.4z"></path>
    </g>
  </g>
  <g>
    <g>
      <path class="st0" d="M36.5,54.1c-1.2-0.8-2.8-1-3.8,0.3c-0.9,1.1-0.5,2.7,0.6,3.5c1.1,0.9,2.6,0.8,3.5-0.2c0.9-1,0.6-2.5-0.2-3.5    c-0.5-0.6-1.4,0.3-0.9,0.9c0.3,0.4,0.5,1.2,0.2,1.7c-0.5,0.7-1.4,0.6-2,0.1c-0.6-0.5-0.8-1.3-0.1-1.9c0.6-0.6,1.4-0.2,2,0.2    C36.6,55.6,37.2,54.6,36.5,54.1L36.5,54.1z"></path>
    </g>
  </g>
  <g>
    <g>
      <path class="st0" d="M36.7,49.7c-3.7-0.1-2.9-2.1-2.7-5c0.1-1.9,0.2-3.7,0.2-5.6c0-1.4-0.6-4.2-0.1-5.6c0.9-2.2,1.7-1.9,3.7-2.9    c3.9-1.8,8-5.3,7.3-10.1c-0.5-3.7-3.7-5.6-7.3-5.2c-2.1,0.2-4.2,1.3-5.9,2.5c-0.9,0.7-1.5,1.5-2.3,2.2c-2.1,1.8-1.9,1.4-4.1-0.4    c-0.6-0.5-1.5,0.4-0.9,0.9c1.1,0.9,2.2,1.9,3.3,2.8c0.3,0.3,0.8,0.2,1-0.1c1.3-2.1,2.8-3.9,5-5.1c2.8-1.6,11-3.2,10,3.8    c-0.8,5.6-6.1,7.7-10.7,9.2c-0.3,0.1-0.5,0.3-0.5,0.6c0.3,6.2,0.2,12.4-0.4,18.6c0,0.3,0.3,0.6,0.6,0.6c1.3,0,2.5,0,3.8,0.1    C37.5,51,37.5,49.7,36.7,49.7L36.7,49.7z"></path>
    </g>
  </g>
</svg>