<svg xmlns="http://www.w3.org/2000/svg" xmlns:xlink="http://www.w3.org/1999/xlink" id="Layer_1" x="0px" y="0px" viewBox="0 0 72 72" style="enable-background:new 0 0 72 72;" xml:space="preserve">
  <style type="text/css">
    .st0{fill:#4EBA74;}
  </style>
  <g>
    <g>
      <path class="st0" d="M45.4,26.3c-1.1-0.8-2.6-0.9-3.5,0.3c-0.9,1.1-0.5,2.5,0.5,3.3c1,0.8,2.4,0.8,3.3-0.2    c0.9-0.9,0.6-2.4-0.1-3.3c-0.5-0.6-1.4,0.3-0.9,0.9c0.3,0.4,0.5,1.1,0.2,1.5c-0.4,0.6-1.2,0.5-1.7,0.1c-0.5-0.5-0.7-1.2-0.1-1.7    c0.6-0.5,1.3-0.2,1.8,0.2C45.5,27.8,46.1,26.7,45.4,26.3L45.4,26.3z"></path>
    </g>
  </g>
  <g>
    <g>
      <path class="st0" d="M35.5,1.7C21.6,1.6,8.3,9.7,3.4,23.1c-5.3,14.5,1.3,32.6,14,41.1c11.6,7.7,28.1,7.7,39.3-0.7    c10.5-7.9,15.9-22.2,13-35C66.3,12.7,51.5,1.2,35.5,1.7c-0.8,0-0.8,1.3,0,1.2c17.4-0.6,33,13.6,33.7,31.1    C70,50.9,57.7,66.4,40.7,68.4C21.3,70.6,4.7,56.1,3,36.8C1.3,17.8,17,2.9,35.5,3C36.3,3,36.3,1.7,35.5,1.7L35.5,1.7z"></path>
    </g>
  </g>
  <g>
    <g>
      <path class="st0" d="M58.4,50c0-8.2,0-16.5-0.2-24.7c0-2.9,1-5.5-2-6c-6.1-1-13-0.1-19.2-0.2c-7.3,0-14.6,0-21.8-0.3    c-0.3,0-0.6,0.3-0.6,0.6c-0.3,9.9-0.1,19.9-0.5,29.8c0,0.8,1.2,0.8,1.2,0c0.3-7.3,0.3-14.6,0.4-21.9c0-2-0.7-6.5,0.8-7.3    c0.9-0.5,3.6,0.1,4.6,0.1c8.6,0.1,17.2,0.1,25.9,0.2c2.9,0,5.9,0,8.8,0.1c0.8,0,1.6,0.4,1.1-0.2c0.4,0.5,0.1,2.7,0.1,3.3    c0.2,8.8,0.2,17.6,0.2,26.5C57.1,50.8,58.4,50.8,58.4,50L58.4,50z"></path>
    </g>
  </g>
  <g>
    <g>
      <path class="st0" d="M14.8,49.9c2.6-0.2,7.6-1.3,9.5,0.4c1.9,1.7,2.3,7.5,3.1,10c0.2,0.6,1,0.6,1.2,0c0.8-2.3,1.2-5.3,2.5-7.4    c2-3.4,5.6-2.8,9.1-2.8c5.9,0.1,11.7,0.2,17.6,0.5c0.8,0,0.8-1.2,0-1.2c-4.2-0.2-8.5-0.3-12.7-0.4c-2.3,0-4.6-0.1-6.9-0.1    c-1.6,0-4.5-0.6-5.9,0c-3.3,1.4-3.9,7.9-4.9,11.1c0.4,0,0.8,0,1.2,0c-1.1-3.7-2-7.3-2.7-11.1c0-0.3-0.3-0.5-0.6-0.5    c-3.5-0.1-7,0-10.5,0.3C14,48.7,14,50,14.8,49.9L14.8,49.9z"></path>
    </g>
  </g>
  <g>
    <g>
      <path class="st0" d="M26.5,25.4c-0.6,6.2-0.8,12.4-0.5,18.6c0,0.8,1.3,0.8,1.2,0c-0.3-6.2-0.2-12.4,0.5-18.6    C27.9,24.6,26.6,24.6,26.5,25.4L26.5,25.4z"></path>
    </g>
  </g>
  <g>
    <g>
      <path class="st0" d="M27.3,35.1c2.1-2.3,7.3-4.5,7.8,0.5c0.2,2.7,0.1,5.5,0,8.2c0,0.8,1.2,0.8,1.2,0c0-2.7,0.2-5.5,0-8.2    c-0.1-1.3-0.4-2.6-1.5-3.4C32,30,28.4,32,26.4,34.2C25.9,34.8,26.7,35.7,27.3,35.1L27.3,35.1z"></path>
    </g>
  </g>
  <g>
    <g>
      <path class="st0" d="M43.8,44.1c0.1-3.9,0.3-7.8,0.5-11.7c0-0.8-1.2-0.8-1.2,0c-0.2,3.9-0.3,7.8-0.5,11.7    C42.5,44.9,43.8,44.9,43.8,44.1L43.8,44.1z"></path>
    </g>
  </g>
</svg>