<svg width="1170" height="92" viewBox="0 0 1170 92" fill="none" xmlns="http://www.w3.org/2000/svg">
<rect width="1170" height="92" fill="white"/>
<path fill-rule="evenodd" clip-rule="evenodd" d="M358 92L390 46L358 -2.69172e-06L0 0V92H358Z" fill="#69B377"/>
<path fill-rule="evenodd" clip-rule="evenodd" d="M748 92L780 46L748 0L368 5.38345e-06L368 2.69172e-06L368 5.38345e-06H368L400 46L368 92H748Z" fill="#D3F3D9"/>
<path fill-rule="evenodd" clip-rule="evenodd" d="M758 92L792.695 46L758 0H1170V92H758Z" fill="#D3F3D9"/>
<path d="M107.237 59C106.716 59 106.285 58.8413 105.945 58.524C105.605 58.184 105.435 57.7647 105.435 57.266V39.042L105.877 39.654L102.715 41.864C102.443 42.0907 102.114 42.204 101.729 42.204C101.276 42.204 100.868 42.034 100.505 41.694C100.165 41.3313 99.995 40.912 99.995 40.436C99.995 39.8467 100.29 39.3593 100.879 38.974L106.047 35.54C106.251 35.404 106.466 35.3133 106.693 35.268C106.942 35.2227 107.169 35.2 107.373 35.2C107.894 35.2 108.314 35.37 108.631 35.71C108.948 36.0273 109.107 36.4353 109.107 36.934V57.266C109.107 57.7647 108.926 58.184 108.563 58.524C108.223 58.8413 107.781 59 107.237 59ZM115.969 58.966C115.402 58.966 114.96 58.8073 114.643 58.49C114.348 58.1727 114.201 57.7307 114.201 57.164V56.552C114.201 55.9853 114.348 55.5433 114.643 55.226C114.96 54.9087 115.402 54.75 115.969 54.75H116.343C116.909 54.75 117.34 54.9087 117.635 55.226C117.929 55.5433 118.077 55.9853 118.077 56.552V57.164C118.077 57.7307 117.929 58.1727 117.635 58.49C117.34 58.8073 116.909 58.966 116.343 58.966H115.969ZM141.364 59.34C139.732 59.34 138.281 59.1133 137.012 58.66C135.742 58.2067 134.53 57.4587 133.374 56.416C133.124 56.2347 132.932 56.0193 132.796 55.77C132.682 55.498 132.626 55.226 132.626 54.954C132.626 54.5233 132.784 54.138 133.102 53.798C133.419 53.458 133.816 53.288 134.292 53.288C134.654 53.288 134.994 53.4127 135.312 53.662C136.173 54.4553 137.068 55.056 137.998 55.464C138.95 55.872 140.06 56.076 141.33 56.076C142.236 56.076 143.064 55.9287 143.812 55.634C144.582 55.3393 145.194 54.9427 145.648 54.444C146.101 53.9453 146.328 53.3673 146.328 52.71C146.328 51.894 146.09 51.2253 145.614 50.704C145.16 50.16 144.492 49.718 143.608 49.378C142.746 49.0153 141.704 48.7093 140.48 48.46C139.346 48.256 138.326 47.9727 137.42 47.61C136.536 47.2473 135.776 46.794 135.142 46.25C134.507 45.6833 134.02 45.0147 133.68 44.244C133.34 43.4733 133.17 42.578 133.17 41.558C133.17 40.1753 133.532 38.9853 134.258 37.988C134.983 36.9907 135.969 36.22 137.216 35.676C138.462 35.132 139.868 34.86 141.432 34.86C142.86 34.86 144.197 35.0867 145.444 35.54C146.69 35.9707 147.699 36.56 148.47 37.308C149.014 37.784 149.286 38.294 149.286 38.838C149.286 39.246 149.116 39.6313 148.776 39.994C148.458 40.334 148.084 40.504 147.654 40.504C147.336 40.504 147.064 40.4133 146.838 40.232C146.475 39.8467 145.988 39.5067 145.376 39.212C144.764 38.8947 144.106 38.634 143.404 38.43C142.724 38.226 142.066 38.124 141.432 38.124C140.412 38.124 139.539 38.2713 138.814 38.566C138.088 38.838 137.533 39.2233 137.148 39.722C136.762 40.198 136.57 40.7647 136.57 41.422C136.57 42.1927 136.785 42.8273 137.216 43.326C137.669 43.8247 138.292 44.2327 139.086 44.55C139.879 44.8447 140.786 45.1167 141.806 45.366C143.052 45.638 144.163 45.944 145.138 46.284C146.135 46.624 146.974 47.066 147.654 47.61C148.334 48.1313 148.855 48.7887 149.218 49.582C149.58 50.3753 149.762 51.3613 149.762 52.54C149.762 53.9 149.376 55.09 148.606 56.11C147.835 57.13 146.815 57.9233 145.546 58.49C144.299 59.0567 142.905 59.34 141.364 59.34ZM161.898 59.34C160.017 59.34 158.385 58.9547 157.002 58.184C155.62 57.3907 154.543 56.314 153.772 54.954C153.024 53.5713 152.65 51.996 152.65 50.228C152.65 48.2333 153.047 46.5333 153.84 45.128C154.656 43.7 155.71 42.612 157.002 41.864C158.294 41.0933 159.666 40.708 161.116 40.708C162.227 40.708 163.281 40.9347 164.278 41.388C165.276 41.8187 166.16 42.4307 166.93 43.224C167.724 43.9947 168.347 44.9127 168.8 45.978C169.254 47.0207 169.492 48.1653 169.514 49.412C169.492 49.8653 169.31 50.2393 168.97 50.534C168.63 50.8287 168.234 50.976 167.78 50.976H154.554L153.738 48.086H166.522L165.876 48.698V47.848C165.831 47.0547 165.57 46.3633 165.094 45.774C164.618 45.162 164.029 44.6973 163.326 44.38C162.624 44.04 161.887 43.87 161.116 43.87C160.436 43.87 159.779 43.9833 159.144 44.21C158.532 44.414 157.977 44.754 157.478 45.23C157.002 45.706 156.617 46.3407 156.322 47.134C156.05 47.9047 155.914 48.868 155.914 50.024C155.914 51.2707 156.175 52.3587 156.696 53.288C157.218 54.2173 157.92 54.9427 158.804 55.464C159.688 55.9627 160.663 56.212 161.728 56.212C162.567 56.212 163.258 56.1327 163.802 55.974C164.346 55.7927 164.8 55.5773 165.162 55.328C165.525 55.0787 165.842 54.8407 166.114 54.614C166.454 54.41 166.794 54.308 167.134 54.308C167.542 54.308 167.882 54.4553 168.154 54.75C168.426 55.022 168.562 55.3507 168.562 55.736C168.562 56.2347 168.313 56.688 167.814 57.096C167.202 57.6853 166.352 58.2067 165.264 58.66C164.199 59.1133 163.077 59.34 161.898 59.34ZM177.03 57.266C177.03 57.7647 176.86 58.184 176.52 58.524C176.202 58.8413 175.806 59 175.33 59C174.854 59 174.446 58.8413 174.106 58.524C173.788 58.184 173.63 57.7647 173.63 57.266V35.574C173.63 35.0753 173.8 34.6673 174.14 34.35C174.48 34.01 174.888 33.84 175.364 33.84C175.862 33.84 176.259 34.01 176.554 34.35C176.871 34.6673 177.03 35.0753 177.03 35.574V57.266ZM190.088 59.34C188.207 59.34 186.575 58.9547 185.192 58.184C183.809 57.3907 182.733 56.314 181.962 54.954C181.214 53.5713 180.84 51.996 180.84 50.228C180.84 48.2333 181.237 46.5333 182.03 45.128C182.846 43.7 183.9 42.612 185.192 41.864C186.484 41.0933 187.855 40.708 189.306 40.708C190.417 40.708 191.471 40.9347 192.468 41.388C193.465 41.8187 194.349 42.4307 195.12 43.224C195.913 43.9947 196.537 44.9127 196.99 45.978C197.443 47.0207 197.681 48.1653 197.704 49.412C197.681 49.8653 197.5 50.2393 197.16 50.534C196.82 50.8287 196.423 50.976 195.97 50.976H182.744L181.928 48.086H194.712L194.066 48.698V47.848C194.021 47.0547 193.76 46.3633 193.284 45.774C192.808 45.162 192.219 44.6973 191.516 44.38C190.813 44.04 190.077 43.87 189.306 43.87C188.626 43.87 187.969 43.9833 187.334 44.21C186.722 44.414 186.167 44.754 185.668 45.23C185.192 45.706 184.807 46.3407 184.512 47.134C184.24 47.9047 184.104 48.868 184.104 50.024C184.104 51.2707 184.365 52.3587 184.886 53.288C185.407 54.2173 186.11 54.9427 186.994 55.464C187.878 55.9627 188.853 56.212 189.918 56.212C190.757 56.212 191.448 56.1327 191.992 55.974C192.536 55.7927 192.989 55.5773 193.352 55.328C193.715 55.0787 194.032 54.8407 194.304 54.614C194.644 54.41 194.984 54.308 195.324 54.308C195.732 54.308 196.072 54.4553 196.344 54.75C196.616 55.022 196.752 55.3507 196.752 55.736C196.752 56.2347 196.503 56.688 196.004 57.096C195.392 57.6853 194.542 58.2067 193.454 58.66C192.389 59.1133 191.267 59.34 190.088 59.34ZM209.469 40.708C210.693 40.708 211.781 40.844 212.733 41.116C213.685 41.3653 214.422 41.728 214.943 42.204C215.487 42.6573 215.759 43.19 215.759 43.802C215.759 44.1873 215.646 44.55 215.419 44.89C215.192 45.2073 214.852 45.366 214.399 45.366C214.082 45.366 213.81 45.3093 213.583 45.196C213.379 45.0827 213.186 44.9467 213.005 44.788C212.824 44.6293 212.597 44.4707 212.325 44.312C212.076 44.176 211.702 44.0627 211.203 43.972C210.727 43.8813 210.296 43.836 209.911 43.836C208.71 43.836 207.667 44.108 206.783 44.652C205.922 45.196 205.242 45.9327 204.743 46.862C204.267 47.7913 204.029 48.8453 204.029 50.024C204.029 51.2027 204.267 52.2567 204.743 53.186C205.242 54.1153 205.91 54.852 206.749 55.396C207.61 55.94 208.608 56.212 209.741 56.212C210.421 56.212 210.976 56.1667 211.407 56.076C211.838 55.9627 212.212 55.8267 212.529 55.668C212.869 55.464 213.152 55.26 213.379 55.056C213.628 54.8293 213.968 54.716 214.399 54.716C214.898 54.716 215.272 54.8747 215.521 55.192C215.793 55.4867 215.929 55.8607 215.929 56.314C215.929 56.8127 215.623 57.3 215.011 57.776C214.422 58.2293 213.628 58.6033 212.631 58.898C211.634 59.1927 210.534 59.34 209.333 59.34C207.565 59.34 206.024 58.932 204.709 58.116C203.417 57.3 202.408 56.1893 201.683 54.784C200.98 53.3787 200.629 51.792 200.629 50.024C200.629 48.2333 201.003 46.6467 201.751 45.264C202.499 43.8587 203.542 42.748 204.879 41.932C206.216 41.116 207.746 40.708 209.469 40.708ZM218.94 41.32H226.93C227.383 41.32 227.757 41.4787 228.052 41.796C228.369 42.0907 228.528 42.4647 228.528 42.918C228.528 43.3487 228.369 43.7113 228.052 44.006C227.757 44.3007 227.383 44.448 226.93 44.448H218.94C218.487 44.448 218.101 44.3007 217.784 44.006C217.489 43.6887 217.342 43.3147 217.342 42.884C217.342 42.4307 217.489 42.0567 217.784 41.762C218.101 41.4673 218.487 41.32 218.94 41.32ZM222.51 36.9C223.009 36.9 223.417 37.07 223.734 37.41C224.051 37.7273 224.21 38.1353 224.21 38.634V54.41C224.21 54.818 224.278 55.1467 224.414 55.396C224.55 55.6453 224.731 55.8153 224.958 55.906C225.207 55.9967 225.457 56.042 225.706 56.042C225.955 56.042 226.171 55.9967 226.352 55.906C226.556 55.8153 226.794 55.77 227.066 55.77C227.338 55.77 227.587 55.8947 227.814 56.144C228.041 56.3933 228.154 56.7333 228.154 57.164C228.154 57.708 227.859 58.15 227.27 58.49C226.681 58.83 226.046 59 225.366 59C224.981 59 224.527 58.966 224.006 58.898C223.485 58.83 222.975 58.66 222.476 58.388C222 58.116 221.603 57.6853 221.286 57.096C220.969 56.484 220.81 55.634 220.81 54.546V38.634C220.81 38.1353 220.969 37.7273 221.286 37.41C221.626 37.07 222.034 36.9 222.51 36.9ZM251.718 35.2C252.919 35.2 254.03 35.5287 255.05 36.186C256.07 36.8207 256.886 37.6933 257.498 38.804C258.11 39.9147 258.416 41.1613 258.416 42.544C258.416 43.9267 258.11 45.1847 257.498 46.318C256.886 47.4287 256.07 48.324 255.05 49.004C254.03 49.6613 252.919 49.99 251.718 49.99H245.156L245.428 49.446V57.266C245.428 57.7647 245.269 58.184 244.952 58.524C244.657 58.8413 244.261 59 243.762 59C243.286 59 242.889 58.8413 242.572 58.524C242.277 58.184 242.13 57.7647 242.13 57.266V36.934C242.13 36.4353 242.3 36.0273 242.64 35.71C242.98 35.37 243.388 35.2 243.864 35.2H251.718ZM251.718 46.726C252.307 46.726 252.84 46.5333 253.316 46.148C253.815 45.7627 254.211 45.2527 254.506 44.618C254.823 43.9833 254.982 43.292 254.982 42.544C254.982 41.796 254.823 41.116 254.506 40.504C254.211 39.892 253.815 39.4047 253.316 39.042C252.84 38.6567 252.307 38.464 251.718 38.464H245.088L245.428 37.954V47.168L245.122 46.726H251.718ZM265.848 57.266C265.848 57.7647 265.678 58.184 265.338 58.524C265.021 58.8413 264.624 59 264.148 59C263.672 59 263.264 58.8413 262.924 58.524C262.607 58.184 262.448 57.7647 262.448 57.266V35.574C262.448 35.0753 262.618 34.6673 262.958 34.35C263.298 34.01 263.706 33.84 264.182 33.84C264.681 33.84 265.077 34.01 265.372 34.35C265.689 34.6673 265.848 35.0753 265.848 35.574V57.266ZM285.562 40.844C286.061 40.844 286.469 41.014 286.786 41.354C287.104 41.6713 287.262 42.0793 287.262 42.578V57.266C287.262 57.7647 287.104 58.184 286.786 58.524C286.469 58.8413 286.061 59 285.562 59C285.086 59 284.678 58.8413 284.338 58.524C284.021 58.184 283.862 57.7647 283.862 57.266V54.818L284.576 54.92C284.576 55.328 284.406 55.7813 284.066 56.28C283.749 56.7787 283.307 57.266 282.74 57.742C282.174 58.1953 281.505 58.5807 280.734 58.898C279.964 59.1927 279.136 59.34 278.252 59.34C276.688 59.34 275.283 58.9433 274.036 58.15C272.79 57.334 271.804 56.2233 271.078 54.818C270.353 53.4127 269.99 51.8147 269.99 50.024C269.99 48.188 270.353 46.5787 271.078 45.196C271.804 43.7907 272.778 42.6913 274.002 41.898C275.249 41.1047 276.632 40.708 278.15 40.708C279.125 40.708 280.02 40.8667 280.836 41.184C281.675 41.5013 282.4 41.9093 283.012 42.408C283.624 42.9067 284.089 43.4393 284.406 44.006C284.746 44.55 284.916 45.0713 284.916 45.57L283.862 45.672V42.578C283.862 42.102 284.021 41.694 284.338 41.354C284.678 41.014 285.086 40.844 285.562 40.844ZM278.626 56.212C279.692 56.212 280.632 55.94 281.448 55.396C282.264 54.852 282.899 54.1153 283.352 53.186C283.806 52.234 284.032 51.18 284.032 50.024C284.032 48.8453 283.806 47.7913 283.352 46.862C282.899 45.9327 282.264 45.196 281.448 44.652C280.632 44.108 279.692 43.836 278.626 43.836C277.584 43.836 276.654 44.108 275.838 44.652C275.045 45.196 274.41 45.9327 273.934 46.862C273.481 47.7913 273.254 48.8453 273.254 50.024C273.254 51.18 273.481 52.234 273.934 53.186C274.41 54.1153 275.045 54.852 275.838 55.396C276.654 55.94 277.584 56.212 278.626 56.212ZM301.24 40.708C302.849 40.708 304.096 41.048 304.98 41.728C305.864 42.3853 306.476 43.2807 306.816 44.414C307.178 45.5247 307.36 46.7713 307.36 48.154V57.266C307.36 57.7647 307.19 58.184 306.85 58.524C306.532 58.8413 306.136 59 305.66 59C305.161 59 304.753 58.8413 304.436 58.524C304.118 58.184 303.96 57.7647 303.96 57.266V48.188C303.96 47.372 303.846 46.6467 303.62 46.012C303.393 45.3547 302.996 44.8333 302.43 44.448C301.886 44.04 301.115 43.836 300.118 43.836C299.188 43.836 298.372 44.04 297.67 44.448C296.967 44.8333 296.412 45.3547 296.004 46.012C295.618 46.6467 295.426 47.372 295.426 48.188V57.266C295.426 57.7647 295.256 58.184 294.916 58.524C294.598 58.8413 294.202 59 293.726 59C293.227 59 292.819 58.8413 292.502 58.524C292.184 58.184 292.026 57.7647 292.026 57.266V42.85C292.026 42.3513 292.184 41.9433 292.502 41.626C292.819 41.286 293.227 41.116 293.726 41.116C294.202 41.116 294.598 41.286 294.916 41.626C295.256 41.9433 295.426 42.3513 295.426 42.85V44.754L294.814 45.094C294.972 44.5953 295.244 44.0967 295.63 43.598C296.038 43.0767 296.525 42.6007 297.092 42.17C297.658 41.7167 298.293 41.3653 298.996 41.116C299.698 40.844 300.446 40.708 301.24 40.708Z" fill="white"/>
<path d="M507.176 55.838C507.629 55.838 508.003 55.9967 508.298 56.314C508.615 56.6087 508.774 56.9827 508.774 57.436C508.774 57.8893 508.615 58.2633 508.298 58.558C508.003 58.8527 507.629 59 507.176 59H495.242C494.743 59 494.346 58.8527 494.052 58.558C493.757 58.2633 493.61 57.8667 493.61 57.368C493.61 56.9147 493.768 56.5067 494.086 56.144L501.668 47.95C502.642 46.9073 503.39 45.876 503.912 44.856C504.456 43.836 504.728 42.9407 504.728 42.17C504.728 40.9233 504.354 39.9147 503.606 39.144C502.858 38.3733 501.872 37.988 500.648 37.988C500.126 37.988 499.594 38.1127 499.05 38.362C498.528 38.5887 498.03 38.906 497.554 39.314C497.1 39.6993 496.704 40.1527 496.364 40.674C496.137 40.9913 495.91 41.1953 495.684 41.286C495.457 41.3767 495.242 41.422 495.038 41.422C494.607 41.422 494.21 41.2747 493.848 40.98C493.508 40.6627 493.338 40.3 493.338 39.892C493.338 39.5747 493.44 39.2687 493.644 38.974C493.848 38.6793 494.108 38.3733 494.426 38.056C494.924 37.444 495.525 36.9 496.228 36.424C496.953 35.9253 497.712 35.54 498.506 35.268C499.299 34.996 500.081 34.86 500.852 34.86C502.348 34.86 503.64 35.1547 504.728 35.744C505.838 36.3333 506.688 37.1607 507.278 38.226C507.89 39.2913 508.196 40.5493 508.196 42C508.196 43.224 507.822 44.584 507.074 46.08C506.348 47.5533 505.328 49.004 504.014 50.432L498.744 56.178L498.37 55.838H507.176ZM514.297 58.966C513.73 58.966 513.288 58.8073 512.971 58.49C512.676 58.1727 512.529 57.7307 512.529 57.164V56.552C512.529 55.9853 512.676 55.5433 512.971 55.226C513.288 54.9087 513.73 54.75 514.297 54.75H514.671C515.238 54.75 515.668 54.9087 515.963 55.226C516.258 55.5433 516.405 55.9853 516.405 56.552V57.164C516.405 57.7307 516.258 58.1727 515.963 58.49C515.668 58.8073 515.238 58.966 514.671 58.966H514.297ZM547.41 36.56C547.908 36.8093 548.192 37.1947 548.26 37.716C548.35 38.2373 548.226 38.7133 547.886 39.144C547.636 39.484 547.308 39.6767 546.9 39.722C546.514 39.7673 546.129 39.688 545.744 39.484C545.086 39.144 544.395 38.872 543.67 38.668C542.944 38.464 542.174 38.362 541.358 38.362C540.066 38.362 538.898 38.5773 537.856 39.008C536.836 39.416 535.952 40.0167 535.204 40.81C534.456 41.5807 533.878 42.4987 533.47 43.564C533.084 44.6293 532.892 45.808 532.892 47.1C532.892 48.528 533.107 49.7973 533.538 50.908C533.968 51.996 534.558 52.9253 535.306 53.696C536.076 54.444 536.972 55.0107 537.992 55.396C539.034 55.7587 540.156 55.94 541.358 55.94C542.128 55.94 542.876 55.8493 543.602 55.668C544.35 55.4867 545.052 55.2147 545.71 54.852C546.118 54.648 546.514 54.58 546.9 54.648C547.308 54.6933 547.636 54.886 547.886 55.226C548.271 55.702 548.407 56.1893 548.294 56.688C548.203 57.164 547.92 57.5267 547.444 57.776C546.877 58.0933 546.254 58.3653 545.574 58.592C544.894 58.8187 544.202 59 543.5 59.136C542.797 59.272 542.083 59.34 541.358 59.34C539.726 59.34 538.184 59.068 536.734 58.524C535.283 57.98 533.991 57.1867 532.858 56.144C531.724 55.1013 530.829 53.8207 530.172 52.302C529.537 50.7833 529.22 49.0493 529.22 47.1C529.22 45.3547 529.514 43.7453 530.104 42.272C530.716 40.776 531.566 39.4953 532.654 38.43C533.764 37.342 535.056 36.5033 536.53 35.914C538.003 35.302 539.612 34.996 541.358 34.996C542.446 34.996 543.5 35.132 544.52 35.404C545.562 35.676 546.526 36.0613 547.41 36.56ZM560.763 40.81C562.327 40.81 563.54 41.15 564.401 41.83C565.262 42.4873 565.863 43.3827 566.203 44.516C566.566 45.6493 566.747 46.896 566.747 48.256V57.266C566.747 57.7647 566.577 58.184 566.237 58.524C565.92 58.8413 565.523 59 565.047 59C564.548 59 564.14 58.8413 563.823 58.524C563.506 58.184 563.347 57.7647 563.347 57.266V48.256C563.347 47.4627 563.234 46.7373 563.007 46.08C562.803 45.4227 562.429 44.9013 561.885 44.516C561.364 44.1307 560.627 43.938 559.675 43.938C558.791 43.938 557.998 44.1307 557.295 44.516C556.615 44.9013 556.082 45.4227 555.697 46.08C555.334 46.7373 555.153 47.4627 555.153 48.256V57.266C555.153 57.7647 554.983 58.184 554.643 58.524C554.326 58.8413 553.929 59 553.453 59C552.954 59 552.546 58.8413 552.229 58.524C551.912 58.184 551.753 57.7647 551.753 57.266V35.574C551.753 35.0753 551.912 34.6673 552.229 34.35C552.546 34.01 552.954 33.84 553.453 33.84C553.929 33.84 554.326 34.01 554.643 34.35C554.983 34.6673 555.153 35.0753 555.153 35.574V44.856L554.541 45.196C554.7 44.6973 554.96 44.1873 555.323 43.666C555.708 43.1447 556.173 42.6687 556.717 42.238C557.284 41.8073 557.907 41.4673 558.587 41.218C559.267 40.946 559.992 40.81 560.763 40.81ZM579.806 59.34C577.924 59.34 576.292 58.9547 574.91 58.184C573.527 57.3907 572.45 56.314 571.68 54.954C570.932 53.5713 570.558 51.996 570.558 50.228C570.558 48.2333 570.954 46.5333 571.748 45.128C572.564 43.7 573.618 42.612 574.91 41.864C576.202 41.0933 577.573 40.708 579.024 40.708C580.134 40.708 581.188 40.9347 582.186 41.388C583.183 41.8187 584.067 42.4307 584.838 43.224C585.631 43.9947 586.254 44.9127 586.708 45.978C587.161 47.0207 587.399 48.1653 587.422 49.412C587.399 49.8653 587.218 50.2393 586.878 50.534C586.538 50.8287 586.141 50.976 585.688 50.976H572.462L571.646 48.086H584.43L583.784 48.698V47.848C583.738 47.0547 583.478 46.3633 583.002 45.774C582.526 45.162 581.936 44.6973 581.234 44.38C580.531 44.04 579.794 43.87 579.024 43.87C578.344 43.87 577.686 43.9833 577.052 44.21C576.44 44.414 575.884 44.754 575.386 45.23C574.91 45.706 574.524 46.3407 574.23 47.134C573.958 47.9047 573.822 48.868 573.822 50.024C573.822 51.2707 574.082 52.3587 574.604 53.288C575.125 54.2173 575.828 54.9427 576.712 55.464C577.596 55.9627 578.57 56.212 579.636 56.212C580.474 56.212 581.166 56.1327 581.71 55.974C582.254 55.7927 582.707 55.5773 583.07 55.328C583.432 55.0787 583.75 54.8407 584.022 54.614C584.362 54.41 584.702 54.308 585.042 54.308C585.45 54.308 585.79 54.4553 586.062 54.75C586.334 55.022 586.47 55.3507 586.47 55.736C586.47 56.2347 586.22 56.688 585.722 57.096C585.11 57.6853 584.26 58.2067 583.172 58.66C582.106 59.1133 580.984 59.34 579.806 59.34ZM599.187 40.708C600.411 40.708 601.499 40.844 602.451 41.116C603.403 41.3653 604.139 41.728 604.661 42.204C605.205 42.6573 605.477 43.19 605.477 43.802C605.477 44.1873 605.363 44.55 605.137 44.89C604.91 45.2073 604.57 45.366 604.117 45.366C603.799 45.366 603.527 45.3093 603.301 45.196C603.097 45.0827 602.904 44.9467 602.723 44.788C602.541 44.6293 602.315 44.4707 602.043 44.312C601.793 44.176 601.419 44.0627 600.921 43.972C600.445 43.8813 600.014 43.836 599.629 43.836C598.427 43.836 597.385 44.108 596.501 44.652C595.639 45.196 594.959 45.9327 594.461 46.862C593.985 47.7913 593.747 48.8453 593.747 50.024C593.747 51.2027 593.985 52.2567 594.461 53.186C594.959 54.1153 595.628 54.852 596.467 55.396C597.328 55.94 598.325 56.212 599.459 56.212C600.139 56.212 600.694 56.1667 601.125 56.076C601.555 55.9627 601.929 55.8267 602.247 55.668C602.587 55.464 602.87 55.26 603.097 55.056C603.346 54.8293 603.686 54.716 604.117 54.716C604.615 54.716 604.989 54.8747 605.239 55.192C605.511 55.4867 605.647 55.8607 605.647 56.314C605.647 56.8127 605.341 57.3 604.729 57.776C604.139 58.2293 603.346 58.6033 602.349 58.898C601.351 59.1927 600.252 59.34 599.051 59.34C597.283 59.34 595.741 58.932 594.427 58.116C593.135 57.3 592.126 56.1893 591.401 54.784C590.698 53.3787 590.347 51.792 590.347 50.024C590.347 48.2333 590.721 46.6467 591.469 45.264C592.217 43.8587 593.259 42.748 594.597 41.932C595.934 41.116 597.464 40.708 599.187 40.708ZM610.868 59C610.392 59 609.984 58.8413 609.644 58.524C609.326 58.184 609.168 57.7647 609.168 57.266V35.574C609.168 35.0753 609.326 34.6673 609.644 34.35C609.984 34.01 610.392 33.84 610.868 33.84C611.366 33.84 611.774 34.01 612.092 34.35C612.409 34.6673 612.568 35.0753 612.568 35.574V57.266C612.568 57.7647 612.409 58.184 612.092 58.524C611.774 58.8413 611.366 59 610.868 59ZM621.952 41.048C622.382 41.048 622.756 41.2293 623.074 41.592C623.391 41.9547 623.55 42.3173 623.55 42.68C623.55 43.1333 623.334 43.5527 622.904 43.938L612.262 53.458L612.126 49.548L620.694 41.592C621.056 41.2293 621.476 41.048 621.952 41.048ZM622.36 58.966C621.884 58.966 621.476 58.7733 621.136 58.388L614.336 51.214L616.92 48.834L623.55 56.008C623.912 56.3933 624.094 56.824 624.094 57.3C624.094 57.7987 623.89 58.2067 623.482 58.524C623.096 58.8187 622.722 58.966 622.36 58.966ZM644.227 50.058C644.227 51.8713 643.83 53.4807 643.037 54.886C642.244 56.2687 641.167 57.3567 639.807 58.15C638.447 58.9433 636.917 59.34 635.217 59.34C633.517 59.34 631.987 58.9433 630.627 58.15C629.267 57.3567 628.179 56.2687 627.363 54.886C626.57 53.4807 626.173 51.8713 626.173 50.058C626.173 48.222 626.57 46.6127 627.363 45.23C628.179 43.8247 629.267 42.7253 630.627 41.932C631.987 41.116 633.517 40.708 635.217 40.708C636.917 40.708 638.447 41.116 639.807 41.932C641.167 42.7253 642.244 43.8247 643.037 45.23C643.83 46.6127 644.227 48.222 644.227 50.058ZM640.827 50.058C640.827 48.8113 640.578 47.7347 640.079 46.828C639.58 45.8987 638.9 45.1733 638.039 44.652C637.2 44.108 636.26 43.836 635.217 43.836C634.174 43.836 633.222 44.108 632.361 44.652C631.5 45.1733 630.82 45.8987 630.321 46.828C629.822 47.7347 629.573 48.8113 629.573 50.058C629.573 51.2593 629.822 52.3247 630.321 53.254C630.82 54.1833 631.5 54.9087 632.361 55.43C633.222 55.9513 634.174 56.212 635.217 56.212C636.26 56.212 637.2 55.9513 638.039 55.43C638.9 54.9087 639.58 54.1833 640.079 53.254C640.578 52.3247 640.827 51.2593 640.827 50.058ZM661.403 41.116C661.879 41.116 662.276 41.286 662.593 41.626C662.933 41.9433 663.103 42.3513 663.103 42.85V51.792C663.103 54.1493 662.446 55.9967 661.131 57.334C659.817 58.6487 657.958 59.306 655.555 59.306C653.175 59.306 651.328 58.6487 650.013 57.334C648.721 55.9967 648.075 54.1493 648.075 51.792V42.85C648.075 42.3513 648.234 41.9433 648.551 41.626C648.869 41.286 649.277 41.116 649.775 41.116C650.251 41.116 650.648 41.286 650.965 41.626C651.305 41.9433 651.475 42.3513 651.475 42.85V51.792C651.475 53.2653 651.815 54.3647 652.495 55.09C653.198 55.8153 654.218 56.178 655.555 56.178C656.915 56.178 657.947 55.8153 658.649 55.09C659.352 54.3647 659.703 53.2653 659.703 51.792V42.85C659.703 42.3513 659.862 41.9433 660.179 41.626C660.497 41.286 660.905 41.116 661.403 41.116ZM667.593 41.32H675.583C676.037 41.32 676.411 41.4787 676.705 41.796C677.023 42.0907 677.181 42.4647 677.181 42.918C677.181 43.3487 677.023 43.7113 676.705 44.006C676.411 44.3007 676.037 44.448 675.583 44.448H667.593C667.14 44.448 666.755 44.3007 666.437 44.006C666.143 43.6887 665.995 43.3147 665.995 42.884C665.995 42.4307 666.143 42.0567 666.437 41.762C666.755 41.4673 667.14 41.32 667.593 41.32ZM671.163 36.9C671.662 36.9 672.07 37.07 672.387 37.41C672.705 37.7273 672.863 38.1353 672.863 38.634V54.41C672.863 54.818 672.931 55.1467 673.067 55.396C673.203 55.6453 673.385 55.8153 673.611 55.906C673.861 55.9967 674.11 56.042 674.359 56.042C674.609 56.042 674.824 55.9967 675.005 55.906C675.209 55.8153 675.447 55.77 675.719 55.77C675.991 55.77 676.241 55.8947 676.467 56.144C676.694 56.3933 676.807 56.7333 676.807 57.164C676.807 57.708 676.513 58.15 675.923 58.49C675.334 58.83 674.699 59 674.019 59C673.634 59 673.181 58.966 672.659 58.898C672.138 58.83 671.628 58.66 671.129 58.388C670.653 58.116 670.257 57.6853 669.939 57.096C669.622 56.484 669.463 55.634 669.463 54.546V38.634C669.463 38.1353 669.622 37.7273 669.939 37.41C670.279 37.07 670.687 36.9 671.163 36.9Z" fill="#29333F"/>
<path d="M859.885 54.648C860.066 54.648 860.259 54.682 860.463 54.75C860.667 54.7953 860.893 54.9087 861.143 55.09C861.551 55.4527 862.038 55.7587 862.605 56.008C863.194 56.2347 863.863 56.348 864.611 56.348C865.449 56.348 866.231 56.1553 866.957 55.77C867.682 55.362 868.271 54.7953 868.725 54.07C869.178 53.3447 869.405 52.4833 869.405 51.486C869.405 50.466 869.189 49.6387 868.759 49.004C868.328 48.3467 867.773 47.8593 867.093 47.542C866.413 47.202 865.699 47.032 864.951 47.032C864.52 47.032 864.157 47.0773 863.863 47.168C863.568 47.236 863.285 47.3153 863.013 47.406C862.741 47.474 862.446 47.508 862.129 47.508C861.698 47.508 861.358 47.3607 861.109 47.066C860.859 46.7487 860.735 46.3747 860.735 45.944C860.735 45.672 860.791 45.434 860.905 45.23C861.018 45.026 861.177 44.7993 861.381 44.55L867.671 37.818L868.419 38.498H859.409C858.955 38.498 858.57 38.3507 858.253 38.056C857.958 37.7387 857.811 37.3533 857.811 36.9C857.811 36.4693 857.958 36.1067 858.253 35.812C858.57 35.5173 858.955 35.37 859.409 35.37H870.153C870.742 35.37 871.173 35.54 871.445 35.88C871.739 36.22 871.887 36.6167 871.887 37.07C871.887 37.3193 871.819 37.5573 871.683 37.784C871.569 38.0107 871.422 38.226 871.241 38.43L864.917 45.23L864.067 44.312C864.248 44.2213 864.554 44.1307 864.985 44.04C865.415 43.9493 865.767 43.904 866.039 43.904C867.331 43.904 868.487 44.2327 869.507 44.89C870.549 45.5473 871.354 46.4313 871.921 47.542C872.51 48.63 872.805 49.8653 872.805 51.248C872.805 52.9027 872.431 54.342 871.683 55.566C870.935 56.7673 869.892 57.6967 868.555 58.354C867.24 59.0113 865.721 59.34 863.999 59.34C863.137 59.34 862.276 59.2267 861.415 59C860.576 58.7507 859.851 58.3993 859.239 57.946C858.853 57.7193 858.593 57.4813 858.457 57.232C858.321 56.96 858.253 56.6993 858.253 56.45C858.253 56.0193 858.4 55.6113 858.695 55.226C859.012 54.8407 859.409 54.648 859.885 54.648ZM878.15 58.966C877.583 58.966 877.141 58.8073 876.824 58.49C876.529 58.1727 876.382 57.7307 876.382 57.164V56.552C876.382 55.9853 876.529 55.5433 876.824 55.226C877.141 54.9087 877.583 54.75 878.15 54.75H878.524C879.09 54.75 879.521 54.9087 879.816 55.226C880.11 55.5433 880.258 55.9853 880.258 56.552V57.164C880.258 57.7307 880.11 58.1727 879.816 58.49C879.521 58.8073 879.09 58.966 878.524 58.966H878.15ZM901.674 59.34C900.042 59.34 898.592 59.1133 897.322 58.66C896.053 58.2067 894.84 57.4587 893.684 56.416C893.435 56.2347 893.242 56.0193 893.106 55.77C892.993 55.498 892.936 55.226 892.936 54.954C892.936 54.5233 893.095 54.138 893.412 53.798C893.73 53.458 894.126 53.288 894.602 53.288C894.965 53.288 895.305 53.4127 895.622 53.662C896.484 54.4553 897.379 55.056 898.308 55.464C899.26 55.872 900.371 56.076 901.64 56.076C902.547 56.076 903.374 55.9287 904.122 55.634C904.893 55.3393 905.505 54.9427 905.958 54.444C906.412 53.9453 906.638 53.3673 906.638 52.71C906.638 51.894 906.4 51.2253 905.924 50.704C905.471 50.16 904.802 49.718 903.918 49.378C903.057 49.0153 902.014 48.7093 900.79 48.46C899.657 48.256 898.637 47.9727 897.73 47.61C896.846 47.2473 896.087 46.794 895.452 46.25C894.818 45.6833 894.33 45.0147 893.99 44.244C893.65 43.4733 893.48 42.578 893.48 41.558C893.48 40.1753 893.843 38.9853 894.568 37.988C895.294 36.9907 896.28 36.22 897.526 35.676C898.773 35.132 900.178 34.86 901.742 34.86C903.17 34.86 904.508 35.0867 905.754 35.54C907.001 35.9707 908.01 36.56 908.78 37.308C909.324 37.784 909.596 38.294 909.596 38.838C909.596 39.246 909.426 39.6313 909.086 39.994C908.769 40.334 908.395 40.504 907.964 40.504C907.647 40.504 907.375 40.4133 907.148 40.232C906.786 39.8467 906.298 39.5067 905.686 39.212C905.074 38.8947 904.417 38.634 903.714 38.43C903.034 38.226 902.377 38.124 901.742 38.124C900.722 38.124 899.85 38.2713 899.124 38.566C898.399 38.838 897.844 39.2233 897.458 39.722C897.073 40.198 896.88 40.7647 896.88 41.422C896.88 42.1927 897.096 42.8273 897.526 43.326C897.98 43.8247 898.603 44.2327 899.396 44.55C900.19 44.8447 901.096 45.1167 902.116 45.366C903.363 45.638 904.474 45.944 905.448 46.284C906.446 46.624 907.284 47.066 907.964 47.61C908.644 48.1313 909.166 48.7887 909.528 49.582C909.891 50.3753 910.072 51.3613 910.072 52.54C910.072 53.9 909.687 55.09 908.916 56.11C908.146 57.13 907.126 57.9233 905.856 58.49C904.61 59.0567 903.216 59.34 901.674 59.34ZM922.209 59.34C920.328 59.34 918.696 58.9547 917.313 58.184C915.93 57.3907 914.854 56.314 914.083 54.954C913.335 53.5713 912.961 51.996 912.961 50.228C912.961 48.2333 913.358 46.5333 914.151 45.128C914.967 43.7 916.021 42.612 917.313 41.864C918.605 41.0933 919.976 40.708 921.427 40.708C922.538 40.708 923.592 40.9347 924.589 41.388C925.586 41.8187 926.47 42.4307 927.241 43.224C928.034 43.9947 928.658 44.9127 929.111 45.978C929.564 47.0207 929.802 48.1653 929.825 49.412C929.802 49.8653 929.621 50.2393 929.281 50.534C928.941 50.8287 928.544 50.976 928.091 50.976H914.865L914.049 48.086H926.833L926.187 48.698V47.848C926.142 47.0547 925.881 46.3633 925.405 45.774C924.929 45.162 924.34 44.6973 923.637 44.38C922.934 44.04 922.198 43.87 921.427 43.87C920.747 43.87 920.09 43.9833 919.455 44.21C918.843 44.414 918.288 44.754 917.789 45.23C917.313 45.706 916.928 46.3407 916.633 47.134C916.361 47.9047 916.225 48.868 916.225 50.024C916.225 51.2707 916.486 52.3587 917.007 53.288C917.528 54.2173 918.231 54.9427 919.115 55.464C919.999 55.9627 920.974 56.212 922.039 56.212C922.878 56.212 923.569 56.1327 924.113 55.974C924.657 55.7927 925.11 55.5773 925.473 55.328C925.836 55.0787 926.153 54.8407 926.425 54.614C926.765 54.41 927.105 54.308 927.445 54.308C927.853 54.308 928.193 54.4553 928.465 54.75C928.737 55.022 928.873 55.3507 928.873 55.736C928.873 56.2347 928.624 56.688 928.125 57.096C927.513 57.6853 926.663 58.2067 925.575 58.66C924.51 59.1133 923.388 59.34 922.209 59.34ZM937.34 57.266C937.34 57.7647 937.17 58.184 936.83 58.524C936.513 58.8413 936.116 59 935.64 59C935.164 59 934.756 58.8413 934.416 58.524C934.099 58.184 933.94 57.7647 933.94 57.266V35.574C933.94 35.0753 934.11 34.6673 934.45 34.35C934.79 34.01 935.198 33.84 935.674 33.84C936.173 33.84 936.569 34.01 936.864 34.35C937.181 34.6673 937.34 35.0753 937.34 35.574V57.266ZM950.398 59.34C948.517 59.34 946.885 58.9547 945.502 58.184C944.12 57.3907 943.043 56.314 942.272 54.954C941.524 53.5713 941.15 51.996 941.15 50.228C941.15 48.2333 941.547 46.5333 942.34 45.128C943.156 43.7 944.21 42.612 945.502 41.864C946.794 41.0933 948.166 40.708 949.616 40.708C950.727 40.708 951.781 40.9347 952.778 41.388C953.776 41.8187 954.66 42.4307 955.43 43.224C956.224 43.9947 956.847 44.9127 957.3 45.978C957.754 47.0207 957.992 48.1653 958.014 49.412C957.992 49.8653 957.81 50.2393 957.47 50.534C957.13 50.8287 956.734 50.976 956.28 50.976H943.054L942.238 48.086H955.022L954.376 48.698V47.848C954.331 47.0547 954.07 46.3633 953.594 45.774C953.118 45.162 952.529 44.6973 951.826 44.38C951.124 44.04 950.387 43.87 949.616 43.87C948.936 43.87 948.279 43.9833 947.644 44.21C947.032 44.414 946.477 44.754 945.978 45.23C945.502 45.706 945.117 46.3407 944.822 47.134C944.55 47.9047 944.414 48.868 944.414 50.024C944.414 51.2707 944.675 52.3587 945.196 53.288C945.718 54.2173 946.42 54.9427 947.304 55.464C948.188 55.9627 949.163 56.212 950.228 56.212C951.067 56.212 951.758 56.1327 952.302 55.974C952.846 55.7927 953.3 55.5773 953.662 55.328C954.025 55.0787 954.342 54.8407 954.614 54.614C954.954 54.41 955.294 54.308 955.634 54.308C956.042 54.308 956.382 54.4553 956.654 54.75C956.926 55.022 957.062 55.3507 957.062 55.736C957.062 56.2347 956.813 56.688 956.314 57.096C955.702 57.6853 954.852 58.2067 953.764 58.66C952.699 59.1133 951.577 59.34 950.398 59.34ZM969.78 40.708C971.004 40.708 972.092 40.844 973.044 41.116C973.996 41.3653 974.732 41.728 975.254 42.204C975.798 42.6573 976.07 43.19 976.07 43.802C976.07 44.1873 975.956 44.55 975.73 44.89C975.503 45.2073 975.163 45.366 974.71 45.366C974.392 45.366 974.12 45.3093 973.894 45.196C973.69 45.0827 973.497 44.9467 973.316 44.788C973.134 44.6293 972.908 44.4707 972.636 44.312C972.386 44.176 972.012 44.0627 971.514 43.972C971.038 43.8813 970.607 43.836 970.222 43.836C969.02 43.836 967.978 44.108 967.094 44.652C966.232 45.196 965.552 45.9327 965.054 46.862C964.578 47.7913 964.34 48.8453 964.34 50.024C964.34 51.2027 964.578 52.2567 965.054 53.186C965.552 54.1153 966.221 54.852 967.06 55.396C967.921 55.94 968.918 56.212 970.052 56.212C970.732 56.212 971.287 56.1667 971.718 56.076C972.148 55.9627 972.522 55.8267 972.84 55.668C973.18 55.464 973.463 55.26 973.69 55.056C973.939 54.8293 974.279 54.716 974.71 54.716C975.208 54.716 975.582 54.8747 975.832 55.192C976.104 55.4867 976.24 55.8607 976.24 56.314C976.24 56.8127 975.934 57.3 975.322 57.776C974.732 58.2293 973.939 58.6033 972.942 58.898C971.944 59.1927 970.845 59.34 969.644 59.34C967.876 59.34 966.334 58.932 965.02 58.116C963.728 57.3 962.719 56.1893 961.994 54.784C961.291 53.3787 960.94 51.792 960.94 50.024C960.94 48.2333 961.314 46.6467 962.062 45.264C962.81 43.8587 963.852 42.748 965.19 41.932C966.527 41.116 968.057 40.708 969.78 40.708ZM979.25 41.32H987.24C987.694 41.32 988.068 41.4787 988.362 41.796C988.68 42.0907 988.838 42.4647 988.838 42.918C988.838 43.3487 988.68 43.7113 988.362 44.006C988.068 44.3007 987.694 44.448 987.24 44.448H979.25C978.797 44.448 978.412 44.3007 978.094 44.006C977.8 43.6887 977.652 43.3147 977.652 42.884C977.652 42.4307 977.8 42.0567 978.094 41.762C978.412 41.4673 978.797 41.32 979.25 41.32ZM982.82 36.9C983.319 36.9 983.727 37.07 984.044 37.41C984.362 37.7273 984.52 38.1353 984.52 38.634V54.41C984.52 54.818 984.588 55.1467 984.724 55.396C984.86 55.6453 985.042 55.8153 985.268 55.906C985.518 55.9967 985.767 56.042 986.016 56.042C986.266 56.042 986.481 55.9967 986.662 55.906C986.866 55.8153 987.104 55.77 987.376 55.77C987.648 55.77 987.898 55.8947 988.124 56.144C988.351 56.3933 988.464 56.7333 988.464 57.164C988.464 57.708 988.17 58.15 987.58 58.49C986.991 58.83 986.356 59 985.676 59C985.291 59 984.838 58.966 984.316 58.898C983.795 58.83 983.285 58.66 982.786 58.388C982.31 58.116 981.914 57.6853 981.596 57.096C981.279 56.484 981.12 55.634 981.12 54.546V38.634C981.12 38.1353 981.279 37.7273 981.596 37.41C981.936 37.07 982.344 36.9 982.82 36.9ZM1004.21 35.166C1004.48 35.166 1004.76 35.234 1005.06 35.37C1005.35 35.506 1005.58 35.6987 1005.74 35.948L1014.37 49.106L1012.91 49.038L1021.72 35.948C1022.08 35.4267 1022.55 35.166 1023.11 35.166C1023.57 35.166 1023.96 35.336 1024.3 35.676C1024.67 35.9933 1024.85 36.4013 1024.85 36.9V57.266C1024.85 57.7647 1024.69 58.184 1024.37 58.524C1024.05 58.8413 1023.63 59 1023.11 59C1022.57 59 1022.13 58.8413 1021.79 58.524C1021.47 58.184 1021.31 57.7647 1021.31 57.266V40.028L1022.4 40.266L1014.92 51.656C1014.76 51.86 1014.56 52.0413 1014.31 52.2C1014.06 52.336 1013.8 52.3927 1013.52 52.37C1013.28 52.3927 1013.01 52.336 1012.74 52.2C1012.49 52.0413 1012.29 51.86 1012.13 51.656L1004.92 40.436L1005.74 39.076V57.266C1005.74 57.7647 1005.58 58.184 1005.26 58.524C1004.97 58.8413 1004.57 59 1004.07 59C1003.6 59 1003.2 58.8413 1002.88 58.524C1002.59 58.184 1002.44 57.7647 1002.44 57.266V36.9C1002.44 36.424 1002.61 36.016 1002.95 35.676C1003.31 35.336 1003.73 35.166 1004.21 35.166ZM1038.35 59.34C1036.47 59.34 1034.84 58.9547 1033.46 58.184C1032.07 57.3907 1031 56.314 1030.23 54.954C1029.48 53.5713 1029.11 51.996 1029.11 50.228C1029.11 48.2333 1029.5 46.5333 1030.3 45.128C1031.11 43.7 1032.17 42.612 1033.46 41.864C1034.75 41.0933 1036.12 40.708 1037.57 40.708C1038.68 40.708 1039.74 40.9347 1040.73 41.388C1041.73 41.8187 1042.61 42.4307 1043.39 43.224C1044.18 43.9947 1044.8 44.9127 1045.26 45.978C1045.71 47.0207 1045.95 48.1653 1045.97 49.412C1045.95 49.8653 1045.77 50.2393 1045.43 50.534C1045.09 50.8287 1044.69 50.976 1044.24 50.976H1031.01L1030.19 48.086H1042.98L1042.33 48.698V47.848C1042.29 47.0547 1042.03 46.3633 1041.55 45.774C1041.07 45.162 1040.48 44.6973 1039.78 44.38C1039.08 44.04 1038.34 43.87 1037.57 43.87C1036.89 43.87 1036.23 43.9833 1035.6 44.21C1034.99 44.414 1034.43 44.754 1033.93 45.23C1033.46 45.706 1033.07 46.3407 1032.78 47.134C1032.51 47.9047 1032.37 48.868 1032.37 50.024C1032.37 51.2707 1032.63 52.3587 1033.15 53.288C1033.67 54.2173 1034.38 54.9427 1035.26 55.464C1036.14 55.9627 1037.12 56.212 1038.18 56.212C1039.02 56.212 1039.71 56.1327 1040.26 55.974C1040.8 55.7927 1041.25 55.5773 1041.62 55.328C1041.98 55.0787 1042.3 54.8407 1042.57 54.614C1042.91 54.41 1043.25 54.308 1043.59 54.308C1044 54.308 1044.34 54.4553 1044.61 54.75C1044.88 55.022 1045.02 55.3507 1045.02 55.736C1045.02 56.2347 1044.77 56.688 1044.27 57.096C1043.66 57.6853 1042.81 58.2067 1041.72 58.66C1040.65 59.1133 1039.53 59.34 1038.35 59.34ZM1064.6 40.844C1065.1 40.844 1065.51 41.014 1065.82 41.354C1066.14 41.6713 1066.3 42.0793 1066.3 42.578V57.266C1066.3 57.7647 1066.14 58.184 1065.82 58.524C1065.51 58.8413 1065.1 59 1064.6 59C1064.12 59 1063.72 58.8413 1063.38 58.524C1063.06 58.184 1062.9 57.7647 1062.9 57.266V54.818L1063.61 54.92C1063.61 55.328 1063.44 55.7813 1063.1 56.28C1062.79 56.7787 1062.34 57.266 1061.78 57.742C1061.21 58.1953 1060.54 58.5807 1059.77 58.898C1059 59.1927 1058.17 59.34 1057.29 59.34C1055.73 59.34 1054.32 58.9433 1053.07 58.15C1051.83 57.334 1050.84 56.2233 1050.12 54.818C1049.39 53.4127 1049.03 51.8147 1049.03 50.024C1049.03 48.188 1049.39 46.5787 1050.12 45.196C1050.84 43.7907 1051.82 42.6913 1053.04 41.898C1054.29 41.1047 1055.67 40.708 1057.19 40.708C1058.16 40.708 1059.06 40.8667 1059.87 41.184C1060.71 41.5013 1061.44 41.9093 1062.05 42.408C1062.66 42.9067 1063.13 43.4393 1063.44 44.006C1063.78 44.55 1063.95 45.0713 1063.95 45.57L1062.9 45.672V42.578C1062.9 42.102 1063.06 41.694 1063.38 41.354C1063.72 41.014 1064.12 40.844 1064.6 40.844ZM1057.66 56.212C1058.73 56.212 1059.67 55.94 1060.49 55.396C1061.3 54.852 1061.94 54.1153 1062.39 53.186C1062.84 52.234 1063.07 51.18 1063.07 50.024C1063.07 48.8453 1062.84 47.7913 1062.39 46.862C1061.94 45.9327 1061.3 45.196 1060.49 44.652C1059.67 44.108 1058.73 43.836 1057.66 43.836C1056.62 43.836 1055.69 44.108 1054.88 44.652C1054.08 45.196 1053.45 45.9327 1052.97 46.862C1052.52 47.7913 1052.29 48.8453 1052.29 50.024C1052.29 51.18 1052.52 52.234 1052.97 53.186C1053.45 54.1153 1054.08 54.852 1054.88 55.396C1055.69 55.94 1056.62 56.212 1057.66 56.212ZM1074.73 57.266C1074.73 57.7647 1074.56 58.184 1074.22 58.524C1073.91 58.8413 1073.51 59 1073.03 59C1072.56 59 1072.15 58.8413 1071.81 58.524C1071.49 58.184 1071.33 57.7647 1071.33 57.266V35.574C1071.33 35.0753 1071.5 34.6673 1071.84 34.35C1072.18 34.01 1072.59 33.84 1073.07 33.84C1073.57 33.84 1073.96 34.01 1074.26 34.35C1074.58 34.6673 1074.73 35.0753 1074.73 35.574V57.266ZM1078.74 56.212C1078.54 55.8947 1078.45 55.532 1078.47 55.124C1078.49 54.6933 1078.73 54.3307 1079.18 54.036C1079.5 53.832 1079.83 53.7527 1080.17 53.798C1080.53 53.8207 1080.87 53.9907 1081.19 54.308C1081.82 55.0107 1082.53 55.566 1083.3 55.974C1084.09 56.382 1085.04 56.586 1086.15 56.586C1086.61 56.5633 1087.07 56.4953 1087.55 56.382C1088.02 56.246 1088.43 56.0193 1088.77 55.702C1089.11 55.362 1089.28 54.8747 1089.28 54.24C1089.28 53.6733 1089.1 53.22 1088.74 52.88C1088.37 52.54 1087.9 52.268 1087.31 52.064C1086.72 51.8373 1086.09 51.6333 1085.41 51.452C1084.68 51.248 1083.94 51.0213 1083.2 50.772C1082.47 50.5227 1081.81 50.2053 1081.22 49.82C1080.63 49.412 1080.15 48.8907 1079.76 48.256C1079.4 47.6213 1079.22 46.8393 1079.22 45.91C1079.22 44.8447 1079.51 43.9267 1080.1 43.156C1080.71 42.3853 1081.5 41.7847 1082.45 41.354C1083.42 40.9233 1084.48 40.708 1085.61 40.708C1086.27 40.708 1086.96 40.7987 1087.68 40.98C1088.41 41.1387 1089.11 41.3993 1089.79 41.762C1090.47 42.1247 1091.06 42.6007 1091.56 43.19C1091.79 43.4847 1091.91 43.836 1091.93 44.244C1091.98 44.652 1091.8 45.0147 1091.39 45.332C1091.12 45.5587 1090.79 45.6607 1090.4 45.638C1090.02 45.6153 1089.7 45.4907 1089.45 45.264C1089.02 44.72 1088.47 44.3007 1087.79 44.006C1087.11 43.6887 1086.33 43.53 1085.47 43.53C1085.04 43.53 1084.59 43.598 1084.11 43.734C1083.66 43.8473 1083.27 44.0627 1082.96 44.38C1082.64 44.6973 1082.48 45.162 1082.48 45.774C1082.48 46.3407 1082.66 46.794 1083.03 47.134C1083.41 47.474 1083.91 47.7573 1084.52 47.984C1085.13 48.2107 1085.8 48.4147 1086.53 48.596C1087.23 48.7773 1087.92 48.9927 1088.6 49.242C1089.3 49.4913 1089.93 49.82 1090.47 50.228C1091.04 50.6133 1091.49 51.1233 1091.83 51.758C1092.19 52.37 1092.38 53.152 1092.38 54.104C1092.38 55.2147 1092.05 56.1667 1091.39 56.96C1090.75 57.7307 1089.94 58.32 1088.94 58.728C1087.97 59.136 1086.94 59.34 1085.85 59.34C1084.56 59.34 1083.26 59.1133 1081.97 58.66C1080.7 58.184 1079.63 57.368 1078.74 56.212Z" fill="#29333F"/>
</svg>
